<?xml version="1.0" encoding="UTF-8" standalone="no"?>
<svg
   xmlns:dc="http://purl.org/dc/elements/1.1/"
   xmlns:cc="http://creativecommons.org/ns#"
   xmlns:rdf="http://www.w3.org/1999/02/22-rdf-syntax-ns#"
   xmlns:svg="http://www.w3.org/2000/svg"
   xmlns="http://www.w3.org/2000/svg"
   xmlns:sodipodi="http://sodipodi.sourceforge.net/DTD/sodipodi-0.dtd"
   xmlns:inkscape="http://www.inkscape.org/namespaces/inkscape"
   inkscape:version="1.0 (4035a4fb49, 2020-05-01)"
   height="24"
   width="24.000053"
   sodipodi:docname="revert_update_ignored.svg"
   xml:space="preserve"
   viewBox="0 0 24.000054 24"
   y="0px"
   x="0px"
   id="Capa_1"
   version="1.1"><metadata
   id="metadata977"><rdf:RDF><cc:Work
       rdf:about=""><dc:format>image/svg+xml</dc:format><dc:type
         rdf:resource="http://purl.org/dc/dcmitype/StillImage" /><dc:title></dc:title></cc:Work></rdf:RDF></metadata><defs
   id="defs975" /><sodipodi:namedview
   inkscape:current-layer="Capa_1"
   inkscape:window-maximized="1"
   inkscape:window-y="0"
   inkscape:window-x="0"
   inkscape:cy="15.198259"
   inkscape:cx="26.078928"
   inkscape:zoom="9.4874926"
   fit-margin-bottom="0"
   fit-margin-right="0"
   fit-margin-left="0"
   fit-margin-top="0"
   showborder="true"
   showgrid="false"
   id="namedview973"
   inkscape:window-height="703"
   inkscape:window-width="1366"
   inkscape:pageshadow="2"
   inkscape:pageopacity="0"
   guidetolerance="10"
   gridtolerance="10"
   objecttolerance="10"
   borderopacity="1"
   bordercolor="#666666"
   pagecolor="#ffffff" />

<g
   transform="translate(-99.068445,-31.505501)"
   id="g942">
</g>
<g
   transform="translate(-99.068445,-31.505501)"
   id="g944">
</g>
<g
   transform="translate(-99.068445,-31.505501)"
   id="g946">
</g>
<g
   transform="translate(-99.068445,-31.505501)"
   id="g948">
</g>
<g
   transform="translate(-99.068445,-31.505501)"
   id="g950">
</g>
<g
   transform="translate(-99.068445,-31.505501)"
   id="g952">
</g>
<g
   transform="translate(-99.068445,-31.505501)"
   id="g954">
</g>
<g
   transform="translate(-99.068445,-31.505501)"
   id="g956">
</g>
<g
   transform="translate(-99.068445,-31.505501)"
   id="g958">
</g>
<g
   transform="translate(-99.068445,-31.505501)"
   id="g960">
</g>
<g
   transform="translate(-99.068445,-31.505501)"
   id="g962">
</g>
<g
   transform="translate(-99.068445,-31.505501)"
   id="g964">
</g>
<g
   transform="translate(-99.068445,-31.505501)"
   id="g966">
</g>
<g
   transform="translate(-99.068445,-31.505501)"
   id="g968">
</g>
<g
   transform="translate(-99.068445,-31.505501)"
   id="g970">
</g>
<g
   id="g6"
   transform="matrix(0.92123116,0,0,0.99783179,0.0240212,-0.97181323)"
   style="fill:#91a069;fill-opacity:1;stroke:#91a069;stroke-width:0.0521502;stroke-miterlimit:4;stroke-dasharray:none;stroke-opacity:1"><path
     d="m 25,17 h -2 c -0.6,0 -1,0.4 -1,1 v 2.5 C 22,20.8 21.8,21 21.5,21 H 4.5 C 4.2,21 4,20.8 4,20.5 V 18 C 4,17.4 3.6,17 3,17 H 1 c -0.6,0 -1,0.4 -1,1 v 6 c 0,0.6 0.4,1 1,1 h 24 c 0.6,0 1,-0.4 1,-1 v -6 c 0,-0.6 -0.4,-1 -1,-1 z"
     id="path2"
     inkscape:connector-curvature="0"
     style="fill:#91a069;fill-opacity:1;stroke:#91a069;stroke-width:0.0521502;stroke-miterlimit:4;stroke-dasharray:none;stroke-opacity:1" /><path
     d="m 12.3,16.7 c 0.2,0.2 0.5,0.3 0.7,0.3 0.2,0 0.5,-0.1 0.7,-0.3 l 6,-6 C 19.9,10.5 20,10.3 20,10 20,9.7 19.9,9.5 19.7,9.3 L 18.3,7.9 C 18.1,7.7 17.9,7.6 17.6,7.6 c -0.3,0 -0.5,0.1 -0.7,0.3 l -1,1 C 15.6,9.2 15,9 15,8.5 V 2 C 15,1.4 14.6,1 14,1 H 12 C 11.4,1 11,1.4 11,2 V 8.6 C 11,9 10.5,9.3 10.1,9 L 9.1,8 C 8.9,7.8 8.7,7.7 8.4,7.7 8.1,7.7 7.9,7.8 7.7,8 L 6.3,9.4 C 6.1,9.6 6,9.8 6,10.1 c 0,0.3 0.1,0.5 0.3,0.7 z"
     id="path4"
     inkscape:connector-curvature="0"
     style="fill:#91a069;fill-opacity:1;stroke:#91a069;stroke-width:0.0521502;stroke-miterlimit:4;stroke-dasharray:none;stroke-opacity:1" /></g></svg>
